<svg version="1.2" xmlns="http://www.w3.org/2000/svg" viewBox="0 0 512 512" width="512" height="512"><style>.a{fill:#f90}</style><path class="a" d="m0 15c0-8.3 6.7-15 15-15h482c8.3 0 15 6.7 15 15v482c0 8.3-6.7 15-15 15h-482c-8.3 0-15-6.7-15-15z"/><path fill-rule="evenodd" d="m265 142c-14-5-37 1-43 23-1 4-4 9-10 8l-37-5c-3 0-8-3-7-9 5-34 40-63 93-62 24 1 45 5 62 21 20 18 18 43 18 70v64c0 20 8 28 15 39 2 2 4 7 0 10l-31 27c-2 3-7 3-10 1-14-11-16-16-24-27-17 18-37 30-68 30-35 0-61-21-61-64 0-62 59-79 121-81 0-16 2-39-18-45zm18 96v-18c-32 0-60 6-61 42 0 17 10 30 25 30 19 0 36-22 36-54zm126 157c4-12 16-40 12-47-5-8-39-4-50-2-3 0-4-2-1-5 16-15 49-14 62-10 7 2 8 3 8 10 1 19-12 46-25 57-4 3-8 2-6-3zm-347-58c25.1 14.6 51.8 26.2 79.6 34.6 27.8 8.4 56.5 13.5 85.4 15.4 29 1.8 58.1 0.2 86.7-4.6 28.6-4.9 56.6-13.1 83.3-24.4 6-3 13 5 6 9-98 69-249 66-345-25-4-3 0-8 4-5z"/></svg>