<svg version="1.2" xmlns="http://www.w3.org/2000/svg" viewBox="0 0 48 47" width="48" height="47"><style></style><path fill-rule="evenodd" d="m26.3 11c0.8-3.5 4-6 7.7-6 3.7 0 6.9 2.5 7.7 6h4.3c1.1 0 2 0.9 2 2 0 1.1-0.9 2-2 2h-4.3c-0.8 3.5-4 6-7.7 6-3.7 0-6.9-2.5-7.7-6h-24.3c-1.1 0-2-0.9-2-2 0-1.1 0.9-2 2-2zm-20 20c0.9-3.5 4-6 7.7-6 3.8 0 6.9 2.5 7.8 6h24.2c1.2 0 2 0.9 2 2 0 1.1-0.8 2-2 2h-24.2c-0.9 3.5-4 6-7.8 6-3.7 0-6.8-2.5-7.7-6h-4.2c-1.2 0-2.1-0.9-2.1-2 0-1.1 0.9-2 2.1-2zm11.7 2c0-2.2-1.8-4-4-4-2.2 0-4 1.8-4 4 0 2.2 1.8 4 4 4 2.2 0 4-1.8 4-4zm20-20c0-2.2-1.8-4-4-4-2.2 0-4 1.8-4 4 0 2.2 1.8 4 4 4 2.2 0 4-1.8 4-4z"/></svg>