<svg version="1.2" xmlns="http://www.w3.org/2000/svg" viewBox="0 0 48 48" width="48" height="48"><style>.a{fill:none}</style><path fill-rule="evenodd" class="a" d="m0 0h48v48h-48z"/><path fill-rule="evenodd" d="m43.1 29.3c0.4 0.3 0.5 0.8 0.2 1.2l-4 7c-0.2 0.4-0.7 0.6-1.2 0.4l-5-2q-1.5 1.2-3.4 2l-0.7 5.3c-0.1 0.4-0.5 0.8-1 0.8h-8c-0.5 0-0.9-0.4-1-0.8l-0.7-5.3q-1.9-0.8-3.4-2l-5 2c-0.4 0.2-1 0-1.2-0.4l-4-7c-0.3-0.4-0.2-0.9 0.2-1.2l4.2-3.4q-0.1-0.9-0.1-1.9 0-1 0.1-2l-4.2-3.3c-0.4-0.3-0.5-0.8-0.2-1.2l4-7c0.2-0.4 0.8-0.6 1.2-0.4l5 2q1.5-1.2 3.4-2l0.7-5.3c0.1-0.4 0.5-0.8 1-0.8h8c0.5 0 0.9 0.4 1 0.8l0.8 5.3q1.8 0.8 3.3 2l5-2c0.5-0.2 1 0 1.2 0.4l4 7c0.3 0.4 0.2 0.9-0.2 1.2l-4.2 3.3q0.1 1 0.1 2 0 1-0.1 1.9zm-12.1-5.2c0-3.9-3.2-7-7-7-3.9 0-7 3.1-7 7 0 3.9 3.1 7 7 7 3.8 0 7-3.1 7-7z"/></svg>