<svg version="1.2" xmlns="http://www.w3.org/2000/svg" viewBox="0 0 878 878" width="878" height="878"><style>.a{fill:#00adef}.b{fill:#fff}</style><path class="a" d="m-17-17h919v911h-919z"/><path class="b" d="m743.6 288.1q-4.2 92.5-129.2 253.4-129.3 167.9-218.8 167.9-55.4 0-93.7-102.3-25.6-93.8-51.2-187.5c-19-68.2-39.3-102.3-61.1-102.3-4.7 0-21.3 9.9-49.7 29.8l-29.8-38.4c31.3-27.5 62.1-55 92.5-82.5 41.7-36 73-55 93.9-56.9q74-7.1 91.1 101.1 18.4 116.9 25.6 145.3c14.2 64.6 29.9 96.9 47 96.9q19.9 0 59.7-62.9 39.8-62.8 42.7-95.7c3.8-36.2-10.4-54.3-42.7-54.3-15.1 0-30.8 3.5-46.9 10.4 31.2-102 90.7-151.6 178.5-148.7 65.2 1.9 95.9 44.1 92.1 126.7z"/></svg>