<svg version="1.2" xmlns="http://www.w3.org/2000/svg" viewBox="0 0 300 300" width="300" height="300"><style>.a{fill:#f00}.b{fill:#fff}</style><path class="a" d="m0 0h300v300h-300z"/><path class="b" d="m101 90.7h112.8v124.6h-112.8z"/><path fill-rule="evenodd" class="a" d="m267.4 51.5c12.9 3.3 23 13.5 26.4 26.3 6.5 23.6 6.2 72.5 6.2 72.5 0 0 0 48.7-6.2 72.1-3.4 13-13.5 23-26.4 26.6-23.5 6.1-117.5 6.1-117.5 6.1 0 0-93.7 0-117.3-6.4-12.9-3.4-23-13.6-26.5-26.4-6.1-23.3-6.1-72.1-6.1-72.1 0 0 0-48.8 6.1-72.4 3.5-12.8 13.9-23.2 26.5-26.7 23.5-6.1 117.3-6.1 117.3-6.1 0 0 94 0 117.5 6.5zm-147.4 143.5l78.1-44.8-78.1-45.1z"/></svg>